<?xml version="1.0" encoding="UTF-8" standalone="no"?>
<svg
  xmlns:dc="http://purl.org/dc/elements/1.1/"
  xmlns:cc="http://creativecommons.org/ns#"
  xmlns:rdf="http://www.w3.org/1999/02/22-rdf-syntax-ns#"
  xmlns:sodipodi="http://sodipodi.sourceforge.net/DTD/sodipodi-0.dtd"
  xmlns:inkscape="http://www.inkscape.org/namespaces/inkscape"
  xmlns="http://www.w3.org/2000/svg"
  width="7"
  height="11"
  viewBox="0 0 7 11"
  version="1.1"
  id="svg875"
  sodipodi:docname="arrowUpDown.svg"
  inkscape:version="0.92.2 (5c3e80d, 2017-08-06)">
  <metadata
    id="metadata881">
    <rdf:RDF>
      <cc:Work
        rdf:about="">
        <dc:format>image/svg+xml</dc:format>
        <dc:type
          rdf:resource="http://purl.org/dc/dcmitype/StillImage"/>
        <dc:title></dc:title>
      </cc:Work>
    </rdf:RDF>
  </metadata>
  <defs
    id="defs879"/>
  <sodipodi:namedview
    pagecolor="#ffffff"
    bordercolor="#666666"
    borderopacity="1"
    objecttolerance="10"
    gridtolerance="10"
    guidetolerance="10"
    inkscape:pageopacity="0"
    inkscape:pageshadow="2"
    inkscape:window-width="1920"
    inkscape:window-height="1039"
    id="namedview877"
    showgrid="false"
    inkscape:zoom="38.409091"
    inkscape:cx="6.6034676"
    inkscape:cy="3.6489002"
    inkscape:window-x="0"
    inkscape:window-y="0"
    inkscape:window-maximized="1"
    inkscape:current-layer="svg875"/>
  <path
    style="fill:#4a4a4a;fill-rule:evenodd"
    d="M 3.4902344 -0.001953125 C 3.4867693 -0.001953125 3.4839197 -5.9967626e-05 3.4804688 0 A 0.578 0.578 0 0 0 3.0566406 0.16601562 L 0.171875 3.6347656 A 0.582 0.582 0 0 0 0.171875 4.4589844 C 0.399875 4.6879844 0.772 4.6879844 1 4.4589844 L 2.90625 2.1679688 L 2.90625 8.8320312 L 1 6.5390625 C 0.772 6.3100625 0.399875 6.3100625 0.171875 6.5390625 A 0.582 0.582 0 0 0 0.171875 7.3652344 L 3.0566406 10.833984 A 0.578 0.578 0 0 0 3.4824219 10.998047 C 3.4852159 10.998086 3.4874311 11 3.4902344 11 C 3.4936768 11 3.4965716 10.998106 3.5 10.998047 A 0.577 0.577 0 0 0 3.9433594 10.832031 L 6.828125 7.3652344 A 0.582 0.582 0 0 0 6.828125 6.5390625 C 6.600125 6.3100625 6.228 6.3100625 6 6.5390625 L 4.0742188 8.8535156 L 4.0742188 2.1464844 L 6 4.4589844 C 6.228 4.6879844 6.600125 4.6879844 6.828125 4.4589844 A 0.582 0.582 0 0 0 6.828125 3.6347656 L 3.9433594 0.16601562 A 0.577 0.577 0 0 0 3.5 0 C 3.4965772 -5.8991298e-05 3.4936711 -0.001953125 3.4902344 -0.001953125 z "
    id="path873"/>
</svg>
