<?xml version="1.0" encoding="UTF-8" standalone="no"?>
<svg
  xmlns:dc="http://purl.org/dc/elements/1.1/"
  xmlns:cc="http://creativecommons.org/ns#"
  xmlns:rdf="http://www.w3.org/1999/02/22-rdf-syntax-ns#"
  xmlns:sodipodi="http://sodipodi.sourceforge.net/DTD/sodipodi-0.dtd"
  xmlns:inkscape="http://www.inkscape.org/namespaces/inkscape"
  xmlns="http://www.w3.org/2000/svg"
  width="7"
  height="11"
  viewBox="0 0 7 11"
  version="1.1"
  id="svg875"
  sodipodi:docname="arrowDown.svg"
  inkscape:version="0.92.2 (5c3e80d, 2017-08-06)">
  <metadata
    id="metadata881">
    <rdf:RDF>
      <cc:Work
        rdf:about="">
        <dc:format>image/svg+xml</dc:format>
        <dc:type
          rdf:resource="http://purl.org/dc/dcmitype/StillImage"/>
      </cc:Work>
    </rdf:RDF>
  </metadata>
  <defs
    id="defs879"/>
  <sodipodi:namedview
    pagecolor="#ffffff"
    bordercolor="#666666"
    borderopacity="1"
    objecttolerance="10"
    gridtolerance="10"
    guidetolerance="10"
    inkscape:pageopacity="0"
    inkscape:pageshadow="2"
    inkscape:window-width="1920"
    inkscape:window-height="1039"
    id="namedview877"
    showgrid="false"
    inkscape:zoom="76.818182"
    inkscape:cx="3.5"
    inkscape:cy="5.5"
    inkscape:window-x="0"
    inkscape:window-y="0"
    inkscape:window-maximized="1"
    inkscape:current-layer="svg875"/>
  <path
    d="m 1,6.5387274 1.907,2.293 V 0.57872738 c 0,-0.32 0.262,-0.58 0.584,-0.58 0.322,0 0.584,0.26 0.584,0.58 V 8.8537274 L 6,6.5397274 c 0.228,-0.229 0.6,-0.229 0.828,0 a 0.582,0.582 0 0 1 0,0.825 L 3.944,10.832727 a 0.577,0.577 0 0 1 -0.444,0.166 0.578,0.578 0 0 1 -0.444,-0.165 L 0.172,7.3647274 a 0.582,0.582 0 0 1 0,-0.825 c 0.228,-0.229 0.6,-0.229 0.828,0 z"
    id="path873"
    inkscape:connector-curvature="0"
    style="fill:#4a4a4a;fill-rule:evenodd"/>
</svg>
